<svg width="1512" height="982" viewBox="0 0 1512 982" fill="none" xmlns="http://www.w3.org/2000/svg">
<g opacity="0.2" filter="url(#filter0_f_447_37)">
<path d="M570.747 111.923C570.747 182.34 215.891 455.923 124.247 455.923C32.6019 455.923 62.7466 198.84 62.7466 128.423C62.7466 58.0072 211.539 74.9235 303.184 74.9235C394.829 74.9235 570.747 41.5072 570.747 111.923Z" fill="#03D4FD"/>
</g>
<g opacity="0.3" filter="url(#filter1_f_447_37)">
<path d="M712 -11.201C445.5 186.799 707.145 312.799 615.5 312.799C523.855 312.799 375 309.715 375 239.299C375 168.883 401.316 -28.1244 486 20.2991C577.645 20.2991 712 -81.6173 712 -11.201Z" fill="#FF66CC"/>
</g>
<g opacity="0.1" filter="url(#filter2_f_447_37)">
<path d="M1407.5 892C1330.5 918.5 1323.64 944.299 1232 944.299C1140.36 944.299 1041 962.416 1041 892C1041 821.584 1175.5 768.841 1232 615C1274 82.3414 1628 762.8 1407.5 892Z" fill="#66FF99"/>
</g>
<defs>
<filter id="filter0_f_447_37" x="-242" y="-233" width="1112.75" height="988.923" filterUnits="userSpaceOnUse" color-interpolation-filters="sRGB">
<feFlood flood-opacity="0" result="BackgroundImageFix"/>
<feBlend mode="normal" in="SourceGraphic" in2="BackgroundImageFix" result="shape"/>
<feGaussianBlur stdDeviation="150" result="effect1_foregroundBlur_447_37"/>
</filter>
<filter id="filter1_f_447_37" x="75" y="-336" width="937" height="948.799" filterUnits="userSpaceOnUse" color-interpolation-filters="sRGB">
<feFlood flood-opacity="0" result="BackgroundImageFix"/>
<feBlend mode="normal" in="SourceGraphic" in2="BackgroundImageFix" result="shape"/>
<feGaussianBlur stdDeviation="150" result="effect1_foregroundBlur_447_37"/>
</filter>
<filter id="filter2_f_447_37" x="741" y="114.088" width="1038.28" height="1132.3" filterUnits="userSpaceOnUse" color-interpolation-filters="sRGB">
<feFlood flood-opacity="0" result="BackgroundImageFix"/>
<feBlend mode="normal" in="SourceGraphic" in2="BackgroundImageFix" result="shape"/>
<feGaussianBlur stdDeviation="150" result="effect1_foregroundBlur_447_37"/>
</filter>
</defs>
</svg>
